<svg xmlns="http://www.w3.org/2000/svg" viewBox="0 0 146.32 70.05"><path d="M284.15 296.79c-1.11-.68-3.25.6-5.47 3.65-5.11 7.05-8.05 16.8-6.85 20.5 4.17-3.46 15.02-22.54 12.32-24.15Z" style="fill:#7ecef4" transform="translate(-140.29 -262.63)"/><path d="M224.13 306c2.17-4.85 2.85-9 1.5-9.22-4.33.41-12 19-11.25 24.66 3.01-2.73 7.62-10.64 9.75-15.44Z" style="fill:#fdd000" transform="translate(-140.29 -262.63)"/><path d="M231.59 290a8.16 8.16 0 0 0 3-5.58c.66-4.37-1.66-5.23-1.66-5.23a16.63 16.63 0 0 1-2.34 5.58 11 11 0 0 1-2.17 2.42c-1 .82-1.47 1-2.23.94-1-.09-1.59-.79-2.15-.89a1.71 1.71 0 0 0-1.8.5c1.47.23 2.26 1.23 3.44 2a13.68 13.68 0 0 0 4.25 1.9 6 6 0 0 0 3 0 5.12 5.12 0 0 0 2.54-1.88 5.12 5.12 0 0 1-3.88.24Z" style="fill:#f5a200" transform="translate(-140.29 -262.63)"/><path d="M190.23 272.16a4.43 4.43 0 0 0-1.36-.31 3.6 3.6 0 0 0 .34-.52c.87-1.72.13-4.27.13-4.27a5.61 5.61 0 0 1-1.67 2.18 5.15 5.15 0 0 0-.95 1.07 4.16 4.16 0 0 0-.31-.58 6.82 6.82 0 0 0-3.65-2.24 5.54 5.54 0 0 1 1.08 2.52 4.36 4.36 0 0 0 .41 1.32 3.82 3.82 0 0 0-.61 0c-1.95.08-3.79 2-3.79 2a5.74 5.74 0 0 1 2.72.37 4.7 4.7 0 0 0 1.43.3 2.82 2.82 0 0 0-.37.62c-.88 1.73-.1 4.26-.1 4.26a5.82 5.82 0 0 1 1.62-2.2 5.22 5.22 0 0 0 1-1 3 3 0 0 0 .27.53c1.06 1.64 3.63 2.27 3.63 2.27a5.72 5.72 0 0 1-1.06-2.53 4.4 4.4 0 0 0-.44-1.41 2.68 2.68 0 0 0 .7 0c1.95-.14 3.75-2.09 3.75-2.09a5.76 5.76 0 0 1-2.77-.29Z" style="fill:#fdd000" transform="translate(-140.29 -262.63)"/><path d="M284.54 306.33c2.18-5 3.09-9.76.46-10.63-2-.65-4.11.19-6.1 1.82-4.32 3.52-8.74 12.21-10.15 18.52a8.22 8.22 0 0 0-6.72.77 8.33 8.33 0 0 0-2.25 2.22c-.82 1.19-1.69 3.84-3.3 3.51-1-.22 1.45-3.64.69-5.06-1-1.81-2.63-.46-3.73.65-1.45 1.48-5.12 5.74-7.19 5.19-.73-.55 2.75-6 .09-6.59-2.11-.44-4.21 1.58-5.66 3.34-1 1.24-5.29 6.46-5.8 3.8-.42-2.06 4.37-7.27-.27-6.55-.62.09-1.23.75-1.9.73s-1.34-.8-1.94-.9a5.38 5.38 0 0 0-4.36 1.36c-2.69 2.39-4.13 5.63-2.11 8l.19.18a7.58 7.58 0 0 1-5.94.52A4.62 4.62 0 0 1 215 324a55.31 55.31 0 0 0 12.13-18.6c2.73-6.75 2.52-11-1-10.32-8.75 1.62-16.65 20.67-15.6 29a12.39 12.39 0 0 1-4 2.34c-1.35.44-3.45.52-3.84-.57-.73-2 2.93-4.25 1.94-6-.47-.82-1.59-.4-2.24-.9s-.34-1.68-1-2.26c-1.92-1.63-4.1 1.79-2.76 3.49 1.76 2.28-2.54 5.85-5.9 7.05-2.64.95-5.09-.3-4.81-2.82a8.79 8.79 0 0 0 3.09-.63c2.55-1.09 5.06-4.18 3.09-6.34a3 3 0 0 0-2.8-.58 6.93 6.93 0 0 0-3.44 1.79 9.14 9.14 0 0 0-2 2.8c-.95-.42-.57-1.66-1-2.44s-1.95-.83-2.21.74a13.29 13.29 0 0 1-1.83 5.33c-1.41 2-3.11 2.27-3.43 2.19-2.76-.59 1.83-9-1.08-8.93a3.19 3.19 0 0 0-3 2.16c-1.53 3.76-3.26 4.76-2.79 5.52.3.51 2.52-.59 3.63-2.38-.1 1.43-.69 4.54.49 5.68a2.75 2.75 0 0 0 3.15.24c2.73-1.25 4.65-4.12 5.66-6.62a5.14 5.14 0 0 0 1.63 1c-.11 1.46-.2 3 .75 4.19 2.72 3.55 8.15.59 10.74-1.49a21.44 21.44 0 0 0 4.45-5 .72.72 0 0 1 .23.73 9.07 9.07 0 0 1-1 2.18c-.72 1.53-1.22 3.25.46 4.32 1.2.77 3.18.66 5.24 0a17.19 17.19 0 0 0 5.25-2.53c1.07 2.24 3.18 3.66 6.35 4.12 3.91.58 7.66-1 10-2.5a29.81 29.81 0 0 0 5.05-4.31c-.49 1-.93 3 .08 3.81 1.44 1.2 3.16-.63 4.2-1.49 1.53-1.27 6.56-5.91 5.74-1.14-.26 1.5-1.65 3.23.68 3 2.58-.29 6.52-4.79 8.43-5.08 2.46-.39.73 1.68.33 2.67-.24.6-.42 1.49.13 1.77 1.22.62 4.65-1 6.27-3.19a4.88 4.88 0 0 0 .2.65c1.06 2.57 4.32 3.53 6.91 3.11a11.42 11.42 0 0 0 4.69-2c1 1.13 2 1.71 4.4 2.25a7.5 7.5 0 0 0 3.4 0c.65-.14 1-.35 1-.58s-.6-.26-1.54-.54a8.33 8.33 0 0 1-4.64-3.21c4.88-4.6 9.54-12.65 11.66-17.46m-94.14 13.69c.66-.37 1.68-.58 2.1-.13a.73.73 0 0 1-.14.87 4.22 4.22 0 0 1-1.56 1 7.48 7.48 0 0 1-1.51.41 2.61 2.61 0 0 1-.76-.06 4.94 4.94 0 0 1 1.87-2.12m35.23-23.16c1.35.22.67 4.37-1.5 9.22s-6.74 12.74-9.75 15.44c-.74-5.63 6.92-24.25 11.25-24.66m.92 27.84c-2-1.56 2.51-6 4.34-5.59 3.49.85-2.64 6.93-4.34 5.59m36.37.16c-1.76-1-1.47-3.78.29-5.5a7.44 7.44 0 0 1 5.18-2.19 14.14 14.14 0 0 0 .31 6.44c-1.21 1.28-4 2.28-5.78 1.25m8.91-3.81c-1.2-3.7 1.74-13.45 6.85-20.5 2.22-3.05 4.36-4.33 5.47-3.65 2.7 1.64-8.15 20.72-12.32 24.18Z" style="fill:#004ea2" transform="translate(-140.29 -262.63)"/><path d="M210.72 294.27c-3.78 3.44-8.24 4.92-13.24 5.66a39.7 39.7 0 0 1-10.57.2 71.66 71.66 0 0 1-9.25-1.82c-4.39-1.11-8.51-3-12.85-4.35a29.28 29.28 0 0 0-5.59-1.38c-4.84-.46-8.37 1.56-9.68 4.19a8.31 8.31 0 0 0 1.56 9.63 15.19 15.19 0 0 0-6.72 3.74 13 13 0 0 0-3.67 12.67c1.39 5.22 6.23 8.89 11.45 9.64a17.24 17.24 0 0 0 11.43-1.9 18.82 18.82 0 0 0 6.37-6.92c.36-.64 2.66-5.28 1.6-5.59-.46-.13-.73.23-1.36 1.43-1.81 3.61-4.73 7.32-8.73 8.59a13.29 13.29 0 0 1-8.82-.39 12.07 12.07 0 0 1-6.34-5.67 9 9 0 0 1-.29-7.37c1.49-3.34 3.77-5.07 7.27-6.3a20.1 20.1 0 0 0 2.5 1.3c3.06 1.34 8.11 2.69 12.94 1.07 3.57-1.19 2.85-5.33-4.74-5.88a30 30 0 0 0-9.36.75 6.24 6.24 0 0 1 .8-7.7 7.55 7.55 0 0 1 5.95-2.13c9.52.23 20.94 8.4 36.05 8.49 5.73 0 9.76-1.15 12.16-4.09a10.46 10.46 0 0 0 2.16-5.15c.19-1.4-.16-1.52-1-.72m-49.1 12.48c3.6-.05 5.86.93 5.57 2.2-.25 1.08-3.4 1.3-5 1.08-1.77-.26-4.72-1.26-5.85-2.54a16 16 0 0 1 5.25-.74Z" style="fill:#004ea2" transform="translate(-140.29 -262.63)"/><path d="m211 290.09-.08-6.3 1.23-2.62h-1.29l-5.51-13.77-.22-4.79a7.47 7.47 0 0 0-3.53 1.27 4.56 4.56 0 0 1-3.11.84 3.42 3.42 0 0 0 3.6.72 3.87 3.87 0 0 1 2.76.12v1.85l-5.14 13.91h-1.29l1.3 2 .19 13.69c4.33-.95 8.39-2.8 11.09-6.92Z" style="fill:#8fc31f" transform="translate(-140.29 -262.63)"/></svg>