<svg xmlns="http://www.w3.org/2000/svg" xml:space="preserve" x="0px" y="0px" style="enable-background:new 0 0 283.5 57.7" viewBox="0 0 283.5 57.7"><g fill="#352461"><path d="M0 0v57.7h37.5V0H0zm30.5 42.8c0 .2-.2.4-.4.4h-5.4c-.2 0-.4-.2-.4-.4V26.1l-3.6 10.5c-.1.2-.2.3-.4.3H17c-.2 0-.3-.1-.4-.3L13 26.1v16.7c0 .2-.2.4-.4.4H7.3c-.2 0-.4-.2-.4-.4V15c0-.2.2-.4.4-.4h5.8c.2 0 .3.1.4.3l5.3 14.5L24 14.9c.1-.2.2-.3.4-.3h5.8c.2 0 .4.2.4.4v27.8zM123 0v57.7h37.5V0H123zm28.1 42.8c0 .2-.2.4-.4.4h-5.5c-.2 0-.4-.2-.4-.4v-5.3h-6.3v5.3c0 .2-.2.4-.4.4h-5.5c-.2 0-.4-.2-.4-.4v-8.2l5.2-19.6c0-.2.2-.3.4-.3h7.7c.2 0 .3.1.4.3l5.2 19.6v8.2z"/><path d="M139.1 32h5.2l-2.6-12.3zM184.6 31.5H180v6.2h4.6c.5 0 .9-.4.9-.9v-4.4c-.1-.5-.4-.9-.9-.9z"/><path d="M164 0v57.7h37.5V0H164zm27.7 37.5c0 3.1-2.5 5.6-5.6 5.6h-11.9c-.2 0-.4-.2-.4-.4V15c0-.2.2-.4.4-.4h11.3c3.1 0 5.6 2.5 5.6 5.6v5.3c0 .3-.1.5-.3.7l-2.9 2.2 3.5 2.8c.2.2.3.4.3.7v5.6z"/><path d="M184.9 25.1V21c0-.5-.4-.9-.9-.9h-4V26h4c.5 0 .9-.4.9-.9zM226.2 20h-5.1c-.2 0-.4.2-.4.4v17.2c0 .2.2.4.4.4h5.1c.2 0 .4-.2.4-.4V20.3c-.1-.2-.2-.3-.4-.3z"/><path d="M205 0v57.7h37.5V0H205zm27.8 20v17.9c0 3.1-2.5 5.7-5.7 5.7h-6.9c-3.1 0-5.7-2.5-5.7-5.7V20c0-3.1 2.5-5.7 5.7-5.7h6.9c3.1 0 5.7 2.6 5.7 5.7zM245.9 0v57.7h37.5V0h-37.5zm28 42.8c0 .2-.2.4-.4.4h-5.4c-.2 0-.3-.1-.4-.3l-3.1-10.1-3.1 10.1c0 .2-.2.3-.4.3h-5.4c-.2 0-.4-.2-.4-.4v-5.9c0-.1 0-.1.1-.2l4.7-7.8-4.5-8V15c0-.2.2-.4.4-.4h5.5c.2 0 .3.1.4.3l2.7 9.7 2.7-9.7c0-.2.2-.3.4-.3h5.5c.2 0 .4.2.4.4v5.9l-4.5 8 4.7 7.8c0 .1.1.1.1.2v5.9zM41 0v57.7h37.5V0H41zm26.7 42.7c0 .2-.2.4-.4.4H52.7c-.2 0-.4-.2-.4-.4V15c0-.2.2-.4.4-.4h14.5c.2 0 .4.2.4.4v4.9c0 .2-.2.4-.4.4h-8.6v5.6h8.2c.2 0 .4.2.4.4V31c0 .2-.2.4-.4.4h-8.2v6.1h8.9c.2 0 .4.2.4.4v4.8zM82 0v57.7h37.5V0H82zm27.8 23.6c0 .2-.2.4-.4.4H104c-.2 0-.4-.2-.4-.4v-3.3c0-.2-.2-.4-.4-.4h-5.1c-.2 0-.4.2-.4.4v17.2c0 .2.2.4.4.4h5.1c.2 0 .4-.2.4-.4v-4.6h-2.7c-.2 0-.4-.2-.4-.4v-4.7c0-.2.2-.4.4-.4h8.5c.2 0 .4.2.4.4v15c0 .2-.2.4-.4.4h-4.9c-.2 0-.4-.1-.4-.3l-.2-2.1-2.2 2.7c-.1.1-.2.1-.3.1h-4.1c-3.1 0-5.7-2.5-5.7-5.7V20c0-3.1 2.5-5.7 5.7-5.7h6.9c3.1 0 5.7 2.5 5.7 5.7v3.6z"/></g></svg>