<svg width="40" height="58" viewBox="0 0 40 58" fill="none" xmlns="http://www.w3.org/2000/svg">
<g filter="url(#filter0_d_2789_11554)">
<path d="M20.1464 51.7842C20.3417 51.9795 20.6583 51.9795 20.8536 51.7842L24.0355 48.6022C24.2308 48.407 24.2308 48.0904 24.0355 47.8951C23.8403 47.6999 23.5237 47.6999 23.3284 47.8951L20.5 50.7236L17.6716 47.8951C17.4763 47.6999 17.1597 47.6999 16.9645 47.8951C16.7692 48.0904 16.7692 48.407 16.9645 48.6022L20.1464 51.7842ZM20.5 41.4307H20V51.4307H20.5H21V41.4307H20.5Z" fill="white"/>
</g>
<g filter="url(#filter1_d_2789_11554)">
<line x1="20.5" y1="6" x2="20.5" y2="21" stroke="white"/>
</g>
<g filter="url(#filter2_d_2789_11554)">
<path d="M6.6 33.04C7.404 33.508 8.16 33.76 8.772 33.76C9.684 33.76 10.176 33.388 10.176 32.668C10.176 32.26 9.816 31.96 9.168 31.684L8.436 31.372C7.26 30.868 6.672 30.316 6.672 29.416C6.672 28.42 7.5 27.724 8.952 27.724C9.672 27.724 10.332 27.892 10.992 28.312V29.188C10.992 29.308 10.956 29.32 10.884 29.248C10.236 28.756 9.636 28.516 8.904 28.516C8.208 28.516 7.764 28.756 7.764 29.344C7.764 29.968 8.196 30.22 8.688 30.412L9.48 30.76C10.512 31.192 11.28 31.612 11.28 32.656C11.28 33.856 10.248 34.6 8.796 34.6C7.992 34.6 7.176 34.42 6.48 33.952V33.124C6.48 33.016 6.516 32.992 6.6 33.04ZM17.2753 33.088C17.3593 33.004 17.4073 33.016 17.4073 33.136V33.94C16.9033 34.42 16.2073 34.6 15.4873 34.6C13.4833 34.6 12.1393 33.46 12.1393 31.204C12.1393 29.104 13.4113 27.724 15.4633 27.724C16.1593 27.724 16.8553 27.904 17.3593 28.324V29.152C17.3593 29.272 17.3113 29.296 17.2273 29.2C16.7113 28.744 16.1353 28.588 15.4873 28.588C13.9993 28.588 13.2433 29.776 13.2433 31.192C13.2433 32.692 14.0113 33.748 15.5713 33.748C16.2313 33.748 16.7713 33.556 17.2753 33.088ZM21.9581 28.828C21.7301 28.696 21.5141 28.648 21.1901 28.648C20.3501 28.648 19.5101 29.488 19.5101 30.736V34.432H18.4781V27.88H19.5221L19.5581 28.828H19.5701C19.9061 28.132 20.6141 27.724 21.2981 27.724C21.6341 27.724 21.8621 27.748 22.1021 27.88V28.768C22.1021 28.876 22.0541 28.9 21.9581 28.828ZM25.2646 34.54C23.1646 34.54 22.2166 32.992 22.2166 31.132C22.2166 29.164 23.2486 27.724 25.2646 27.724C27.2806 27.724 28.3126 29.164 28.3126 31.132C28.3126 32.992 27.3646 34.54 25.2646 34.54ZM25.2646 33.712C26.5366 33.712 27.2206 32.836 27.2206 31.132C27.2206 29.38 26.5366 28.54 25.2646 28.54C23.9926 28.54 23.3086 29.38 23.3086 31.132C23.3086 32.836 23.9926 33.712 25.2646 33.712ZM30.6664 24.676V34.432H29.6344V24.676H30.6664ZM33.5961 24.676V34.432H32.5641V24.676H33.5961Z" fill="white"/>
</g>
<defs>
<filter id="filter0_d_2789_11554" x="10.8181" y="35.4307" width="19.3638" height="22.5" filterUnits="userSpaceOnUse" color-interpolation-filters="sRGB">
<feFlood flood-opacity="0" result="BackgroundImageFix"/>
<feColorMatrix in="SourceAlpha" type="matrix" values="0 0 0 0 0 0 0 0 0 0 0 0 0 0 0 0 0 0 127 0" result="hardAlpha"/>
<feOffset/>
<feGaussianBlur stdDeviation="3"/>
<feComposite in2="hardAlpha" operator="out"/>
<feColorMatrix type="matrix" values="0 0 0 0 1 0 0 0 0 1 0 0 0 0 1 0 0 0 0.7 0"/>
<feBlend mode="normal" in2="BackgroundImageFix" result="effect1_dropShadow_2789_11554"/>
<feBlend mode="normal" in="SourceGraphic" in2="effect1_dropShadow_2789_11554" result="shape"/>
</filter>
<filter id="filter1_d_2789_11554" x="14" y="0" width="13" height="27" filterUnits="userSpaceOnUse" color-interpolation-filters="sRGB">
<feFlood flood-opacity="0" result="BackgroundImageFix"/>
<feColorMatrix in="SourceAlpha" type="matrix" values="0 0 0 0 0 0 0 0 0 0 0 0 0 0 0 0 0 0 127 0" result="hardAlpha"/>
<feOffset/>
<feGaussianBlur stdDeviation="3"/>
<feComposite in2="hardAlpha" operator="out"/>
<feColorMatrix type="matrix" values="0 0 0 0 1 0 0 0 0 1 0 0 0 0 1 0 0 0 0.7 0"/>
<feBlend mode="normal" in2="BackgroundImageFix" result="effect1_dropShadow_2789_11554"/>
<feBlend mode="normal" in="SourceGraphic" in2="effect1_dropShadow_2789_11554" result="shape"/>
</filter>
<filter id="filter2_d_2789_11554" x="0.47998" y="18.6758" width="39.116" height="21.9243" filterUnits="userSpaceOnUse" color-interpolation-filters="sRGB">
<feFlood flood-opacity="0" result="BackgroundImageFix"/>
<feColorMatrix in="SourceAlpha" type="matrix" values="0 0 0 0 0 0 0 0 0 0 0 0 0 0 0 0 0 0 127 0" result="hardAlpha"/>
<feOffset/>
<feGaussianBlur stdDeviation="3"/>
<feComposite in2="hardAlpha" operator="out"/>
<feColorMatrix type="matrix" values="0 0 0 0 1 0 0 0 0 1 0 0 0 0 1 0 0 0 0.7 0"/>
<feBlend mode="normal" in2="BackgroundImageFix" result="effect1_dropShadow_2789_11554"/>
<feBlend mode="normal" in="SourceGraphic" in2="effect1_dropShadow_2789_11554" result="shape"/>
</filter>
</defs>
</svg>
