<svg width="31" height="46" viewBox="0 0 31 46" fill="none" xmlns="http://www.w3.org/2000/svg">
<path d="M14.1464 45.7842C14.3417 45.9795 14.6583 45.9795 14.8536 45.7842L18.0355 42.6022C18.2308 42.407 18.2308 42.0904 18.0355 41.8951C17.8403 41.6999 17.5237 41.6999 17.3284 41.8951L14.5 44.7236L11.6716 41.8951C11.4763 41.6999 11.1597 41.6999 10.9645 41.8951C10.7692 42.0904 10.7692 42.407 10.9645 42.6022L14.1464 45.7842ZM14.5 35.4307H14V45.4307H14.5H15V35.4307H14.5Z" fill="white"/>
<line x1="14.5" x2="14.5" y2="15" stroke="white"/>
<path d="M5.55682 23.9205L4.65341 24.1761C4.59659 24.0256 4.51278 23.8793 4.40199 23.7372C4.29403 23.5923 4.14631 23.473 3.95881 23.3793C3.77131 23.2855 3.53125 23.2386 3.23864 23.2386C2.83807 23.2386 2.50426 23.331 2.23722 23.5156C1.97301 23.6974 1.84091 23.929 1.84091 24.2102C1.84091 24.4602 1.93182 24.6577 2.11364 24.8026C2.29545 24.9474 2.57955 25.0682 2.96591 25.1648L3.9375 25.4034C4.52273 25.5455 4.95881 25.7628 5.24574 26.0554C5.53267 26.3452 5.67614 26.7187 5.67614 27.1761C5.67614 27.5511 5.56818 27.8864 5.35227 28.1818C5.1392 28.4773 4.84091 28.7102 4.45739 28.8807C4.07386 29.0511 3.62784 29.1364 3.11932 29.1364C2.4517 29.1364 1.89915 28.9915 1.46165 28.7017C1.02415 28.4119 0.747159 27.9886 0.630682 27.4318L1.58523 27.1932C1.67614 27.5455 1.84801 27.8097 2.10085 27.9858C2.35653 28.1619 2.69034 28.25 3.10227 28.25C3.57102 28.25 3.94318 28.1506 4.21875 27.9517C4.49716 27.75 4.63636 27.5085 4.63636 27.2273C4.63636 27 4.55682 26.8097 4.39773 26.6562C4.23864 26.5 3.99432 26.3835 3.66477 26.3068L2.57386 26.0511C1.97443 25.9091 1.53409 25.6889 1.25284 25.3906C0.974432 25.0895 0.835227 24.7131 0.835227 24.2614C0.835227 23.892 0.93892 23.5653 1.14631 23.2812C1.35653 22.9972 1.64205 22.7741 2.00284 22.6122C2.36648 22.4503 2.77841 22.3693 3.23864 22.3693C3.88636 22.3693 4.39489 22.5114 4.7642 22.7955C5.13636 23.0795 5.40057 23.4545 5.55682 23.9205ZM9.84908 29.1364C9.23544 29.1364 8.70703 28.9915 8.26385 28.7017C7.82067 28.4119 7.47976 28.0128 7.24112 27.5043C7.00249 26.9957 6.88317 26.4148 6.88317 25.7614C6.88317 25.0966 7.00533 24.5099 7.24964 24.0014C7.4968 23.4901 7.84055 23.0909 8.28089 22.804C8.72408 22.5142 9.24112 22.3693 9.83203 22.3693C10.2923 22.3693 10.707 22.4545 11.0763 22.625C11.4457 22.7955 11.7482 23.0341 11.984 23.3409C12.2198 23.6477 12.3661 24.0057 12.4229 24.4148H11.4173C11.3406 24.1165 11.1701 23.8523 10.9059 23.6222C10.6445 23.3892 10.2923 23.2727 9.84908 23.2727C9.45703 23.2727 9.11328 23.375 8.81783 23.5795C8.52521 23.7812 8.29652 24.0668 8.13175 24.4361C7.96982 24.8026 7.88885 25.233 7.88885 25.7273C7.88885 26.233 7.96839 26.6733 8.12749 27.0483C8.28942 27.4233 8.51669 27.7145 8.8093 27.9219C9.10476 28.1293 9.45135 28.233 9.84908 28.233C10.1104 28.233 10.3477 28.1875 10.5607 28.0966C10.7738 28.0057 10.9542 27.875 11.1019 27.7045C11.2496 27.5341 11.3548 27.3295 11.4173 27.0909H12.4229C12.3661 27.4773 12.2255 27.8253 12.0011 28.1349C11.7795 28.4418 11.4854 28.6861 11.119 28.8679C10.7553 29.0469 10.332 29.1364 9.84908 29.1364ZM13.8931 29V22.4545H14.8647V23.4432H14.9329C15.0522 23.1193 15.2681 22.8565 15.5806 22.6548C15.8931 22.4531 16.2454 22.3523 16.6374 22.3523C16.7113 22.3523 16.8036 22.3537 16.9144 22.3565C17.0252 22.3594 17.109 22.3636 17.1658 22.3693V23.392C17.1317 23.3835 17.0536 23.3707 16.9315 23.3537C16.8121 23.3338 16.6857 23.3239 16.5522 23.3239C16.234 23.3239 15.9499 23.3906 15.6999 23.5241C15.4528 23.6548 15.2567 23.8366 15.1119 24.0696C14.9698 24.2997 14.8988 24.5625 14.8988 24.858V29H13.8931ZM20.8178 29.1364C20.2269 29.1364 19.7085 28.9957 19.2624 28.7145C18.8192 28.4332 18.4727 28.0398 18.2227 27.5341C17.9755 27.0284 17.8519 26.4375 17.8519 25.7614C17.8519 25.0795 17.9755 24.4844 18.2227 23.9759C18.4727 23.4673 18.8192 23.0724 19.2624 22.7912C19.7085 22.5099 20.2269 22.3693 20.8178 22.3693C21.4087 22.3693 21.9258 22.5099 22.369 22.7912C22.815 23.0724 23.1616 23.4673 23.4087 23.9759C23.6587 24.4844 23.7837 25.0795 23.7837 25.7614C23.7837 26.4375 23.6587 27.0284 23.4087 27.5341C23.1616 28.0398 22.815 28.4332 22.369 28.7145C21.9258 28.9957 21.4087 29.1364 20.8178 29.1364ZM20.8178 28.233C21.2667 28.233 21.636 28.1179 21.9258 27.8878C22.2156 27.6577 22.43 27.3551 22.5692 26.9801C22.7085 26.6051 22.7781 26.1989 22.7781 25.7614C22.7781 25.3239 22.7085 24.9162 22.5692 24.5384C22.43 24.1605 22.2156 23.8551 21.9258 23.6222C21.636 23.3892 21.2667 23.2727 20.8178 23.2727C20.369 23.2727 19.9996 23.3892 19.7099 23.6222C19.4201 23.8551 19.2056 24.1605 19.0664 24.5384C18.9272 24.9162 18.8576 25.3239 18.8576 25.7614C18.8576 26.1989 18.9272 26.6051 19.0664 26.9801C19.2056 27.3551 19.4201 27.6577 19.7099 27.8878C19.9996 28.1179 20.369 28.233 20.8178 28.233ZM26.3246 20.2727V29H25.3189V20.2727H26.3246ZM29.1722 20.2727V29H28.1665V20.2727H29.1722Z" fill="white"/>
</svg>
