<svg xmlns="http://www.w3.org/2000/svg" xml:space="preserve" width="433.39999" height="95.699997" viewBox="0 0 433.39999 95.699997"><defs><clipPath id="a" clipPathUnits="userSpaceOnUse"><path d="M0 595.28h419.53V0H0Z"/></clipPath></defs><g clip-path="url(#a)" transform="matrix(2.43512 0 0 -2.43512 -288.135 755.389)"><path d="m0 0-1.198.564C-3 1.412-3.737 1.894-3.737 3.235c0 1.244.95 2.11 2.308 2.11 1.298 0 2.168-.48 2.826-1.571l.071-.112 1.315.838-.067.111C1.766 6.14.448 6.855-1.45 6.855c-2.287 0-3.943-1.542-3.943-3.665 0-2.096 1.279-3.111 3.496-4.146l1.199-.573c1.8-.831 2.708-1.537 2.708-3.078 0-1.492-1.183-2.421-3.091-2.421-1.65 0-2.985.808-3.76 2.264l-.06.119-1.433-.756.06-.119C-5.23-7.49-3.376-8.575-1.06-8.575c2.931 0 4.753 1.539 4.753 4.01C3.693-2.221 2.339-1.116 0 0" style="fill:#231916" transform="translate(124.659 287.287)"/><path d="M0 0h-7.815v8.67h-1.684V-6.409h1.684v4.882H0v-4.882h1.683V8.67H0Z" style="fill:#231916" transform="translate(140.566 285.296)"/><path d="m0 0-6.343-15.426h1.704l1.043 2.571h7.468l1.025-2.571h1.748L.283 0Zm3.247-11.326h-6.234L.15-3.601c1.031-2.555 2.745-6.822 3.097-7.725" style="fill:#231916" transform="translate(150.811 294.315)"/><path d="M0 0h-1.922l-6.539-8.288V0h-1.681v-15.078h1.681v4.486l1.764 2.19 5.298-6.676H.635l-6.267 7.909z" style="fill:#231916" transform="translate(169.814 293.963)"/><path d="M0 0h6.711v1.504H0v7.143h7.518v1.527h-9.199V-4.903h9.505v1.528H0Z" style="fill:#231916" transform="translate(174.164 283.792)"/><path d="m0 0-1.195.564c-1.802.848-2.541 1.33-2.541 2.671 0 1.244.951 2.11 2.309 2.11 1.296 0 2.169-.48 2.827-1.571l.071-.112 1.312.838-.068.111C1.769 6.14.446 6.855-1.449 6.855c-2.287 0-3.944-1.542-3.944-3.665 0-2.096 1.282-3.111 3.494-4.146l1.204-.573c1.797-.831 2.71-1.537 2.71-3.078 0-1.492-1.188-2.421-3.093-2.421-1.652 0-2.988.808-3.763 2.264l-.059.119-1.434-.756.063-.119c1.044-1.97 2.892-3.055 5.213-3.055 2.933 0 4.751 1.539 4.751 4.01C3.693-2.221 2.342-1.116 0 0" style="fill:#231916" transform="translate(233.362 287.287)"/><path d="M0 0h-7.817v8.67h-1.679V-6.409h1.679v4.882H0v-4.882h1.684V8.67H0Z" style="fill:#231916" transform="translate(249.273 285.296)"/><path d="m0 0-6.34-15.426h1.703l1.044 2.571h7.468l1.024-2.571h1.748L.285 0Zm3.252-11.326h-6.239L.15-3.601c1.034-2.555 2.749-6.822 3.102-7.725" style="fill:#231916" transform="translate(259.515 294.315)"/><path d="M0 0c-1.186-1.576-2.887-2.412-4.929-2.412-3.457 0-5.965 2.598-5.965 6.166 0 3.515 2.518 6.163 5.86 6.163 1.947 0 3.508-.741 4.642-2.215l.079-.098 1.302.939-.081.108c-1.406 1.841-3.456 2.818-5.922 2.818-4.349 0-7.628-3.315-7.628-7.713-.01-2.129.765-4.083 2.177-5.501 1.416-1.427 3.37-2.212 5.493-2.212 2.654 0 4.768 1.017 6.29 3.014l.084.11L.075.103z" style="fill:#231916" transform="translate(279.06 282.67)"/><path d="m0 0 5.635 7.17H3.71l-6.536-8.291V7.17h-1.682V-7.909h1.682v4.484l1.765 2.19 5.293-6.674h2.036z" style="fill:#231916" transform="translate(287.327 286.796)"/><path d="M0 0v2.048c1.064.03 1.292.338 1.496.614.192.293.204.674.204.676v.01c.007 2.55-1.602 4.987-4.456 6.846-2.839 1.849-6.859 3.034-11.308 3.031-4.443.003-8.463-1.182-11.3-3.031-2.854-1.859-4.462-4.296-4.456-6.846v-.01c.004 0 .012-.383.204-.676.206-.276.431-.584 1.494-.614H0V0h-28.122c-1.608-.031-2.744.747-3.235 1.583-.5.828-.506 1.576-.511 1.755v.01c.125 6.96 8.27 11.904 17.804 11.925 9.543-.021 17.683-4.965 17.812-11.925v-.01c-.004-.179-.011-.925-.518-1.755C2.756.763 1.652 0 .09 0Z" style="fill:#6eb329" transform="translate(219.3 294.933)"/><path d="M0 0c-2.585.021-4.209.228-5.401 1.188-1.196 1.033-1.323 2.483-1.327 4.057v.009c.004.183.021.883.559 1.624.539.763 1.632 1.358 3.189 1.338h28.122V6.172H-2.98c-1.119-.019-1.392-.32-1.542-.506l-.156-.4V5.245c-.007-1.529.196-2.179.592-2.491.393-.375 1.62-.727 4.086-.704h21.085c3.001-.017 4.519.404 5.08.86.512.394.662.958.677 2.285l-.002.059-.017.112-.139.3c-.155.186-.421.487-1.542.506V8.216c1.556.02 2.654-.575 3.189-1.338a2.901 2.901 0 0 0 .555-1.541l.002-.044.002-.048c.006-1.408-.157-2.945-1.486-3.962C26.103.325 24.228.021 21.085 0Z" style="fill:#6eb329" transform="translate(194.16 270.906)"/><path d="M0 0c-1.689.008-3.13 1.31-3.139 3.028C-3.13 4.747-1.689 6.047 0 6.053h29.34c1.684-.006 3.124-1.306 3.135-3.025C32.464 1.31 31.024.008 29.34 0Zm-1.096 3.028c0-.493.449-.972 1.096-.976h29.34c.639.004 1.087.483 1.087.976 0 .498-.448.975-1.087.98H0c-.647-.005-1.096-.482-1.096-.98" style="fill:#6eb329" transform="translate(190.573 281.095)"/><path d="M0 0c-.294.336-.302.644-1.292.71-.658 0-1.022-.37-1.176-.553l-.054-.072c-.071-.115-.974-1.51-2.963-1.53C-7.38-1.501-8.365-.075-8.396 0c-.292.34-.305.644-1.29.71-.656 0-1.021-.37-1.181-.553l-.052-.072c-.065-.115-.969-1.51-2.962-1.53-.563 0-1.023.462-1.023 1.02 0 .568.46 1.026 1.023 1.026.681 0 1.043.36 1.197.529l.021.023c.059.105.952 1.576 2.977 1.607 1.897.063 2.873-1.421 2.904-1.498.224-.244.295-.601 1.297-.661.675 0 1.038.36 1.188.529l.031.032c.104.171.997 1.567 2.974 1.598 1.894.063 2.871-1.414 2.898-1.498.231-.246.302-.601 1.3-.661.677 0 1.037.36 1.189.529l.03.028c.095.159.991 1.571 2.976 1.602 1.898.063 2.872-1.421 2.903-1.498.221-.244.298-.601 1.288-.661a1.023 1.023 0 1 0 0-2.046C9.407-1.501 8.419-.075 8.393 0c-.299.34-.307.644-1.292.71C6.443.71 6.076.34 5.92.157L5.868.085c-.069-.109-.973-1.51-2.962-1.53l-.119-.006C.979-1.451.025-.069 0 0" style="fill:#6eb329" transform="translate(202.245 290.555)"/><path d="M0 0c-.296.34-.304.644-1.292.71-.656 0-1.022-.37-1.183-.553l-.047-.072c-.067-.109-.969-1.51-2.971-1.53a1.023 1.023 0 0 0 0 2.046c.687 0 1.051.36 1.2.529l.022.023c.063.105.953 1.576 2.979 1.603 1.898.067 2.873-1.417 2.902-1.498.221-.24.302-.597 1.297-.657a1.022 1.022 0 0 0 0-2.046L2.8-1.451C.979-1.445.026-.075 0 0" style="fill:#6eb329" transform="translate(219.027 290.555)"/><path d="M0 0c-1.037 0-1.781.78-1.781 1.813 0 1.087.827 1.806 1.781 1.806.952 0 1.772-.719 1.772-1.806C1.772.723.952 0 0 0m0 3.308c-.783 0-1.392-.615-1.392-1.495C-1.392.987-.858.315 0 .315c.774 0 1.387.614 1.387 1.498 0 .88-.613 1.495-1.387 1.495M-.354.774h-.334v2.007h.763c.483 0 .729-.169.729-.576 0-.364-.221-.514-.521-.548L.846.774H.471l-.515.857h-.31zM.01 1.913c.248 0 .467.025.467.316 0 .241-.24.269-.436.269h-.395v-.585Z" style="fill:#231916" transform="translate(294.497 296.326)"/></g></svg>