<svg xmlns="http://www.w3.org/2000/svg" id="Layer_1" viewBox="0 0 828.29 200"><defs><style>.cls-1,.cls-3{fill:#2346ff}.cls-3{fill-rule:evenodd}</style></defs><path d="M316.5 46.8A39.76 39.76 0 0 0 286.2 61v-9.15h-30.3V200h33.67v-51.87a42.05 42.05 0 0 0 26.93 9.78c29.75 0 53.87-24.87 53.87-55.55S346.25 46.8 316.5 46.8Zm53.87 55.56c0-30.69-24.12-55.56-53.87-55.56m-3.37 80.14c-13 0-23.56-11-23.56-24.58s10.55-24.58 23.56-24.58 23.57 11 23.57 24.58-10.55 24.58-23.57 24.58Z" class="cls-1"/><circle cx="405.73" cy="137.71" r="20.2" style="fill:#ffb400" transform="rotate(-45 405.732 137.71)"/><circle cx="215.49" cy="18.86" r="18.86" class="cls-1"/><path d="M198.66 51.85h33.67v101.01h-33.67z" class="cls-1"/><path d="M0 4.71V33h43.77v119.86h33.67V33h43.77V4.71H0z" class="cls-3"/><path d="M496.64 126.94c-13 0-23.57-11-23.57-24.58s10.55-24.58 23.57-24.58a23 23 0 0 1 17 7.58l22.29-22.29a55.56 55.56 0 1 0 0 78.57l-22.29-22.28a23 23 0 0 1-17 7.58Z" class="cls-1"/><path d="M791.36 46.8c-13.63 0-24.72 5.2-31.36 16.55-6.05-10.6-17.15-16.55-30.16-16.55-13.22 0-23.21 6.12-29.47 16.51V51.85H670v101h33.67v-63c0-8.53 6.63-15.45 14.81-15.45s14.82 6.92 14.82 15.45v63H765v-63c0-8.53 6.63-15.45 14.81-15.45s14.82 6.92 14.82 15.45v63h33.67V83.53c-.01-22.8-14.3-36.73-36.94-36.73Z" class="cls-3"/><path d="M597.65 46.8a55.56 55.56 0 1 0 55.55 55.56 55.55 55.55 0 0 0-55.55-55.56Zm0 80.14c-13 0-23.57-11-23.57-24.58s10.55-24.58 23.57-24.58 23.57 11 23.57 24.58-10.56 24.58-23.57 24.58ZM175.08 51.33a36.05 36.05 0 0 0-30.3 16.51v-16h-30.3v101h33.78v-42.37c0-17.41 12.67-28.28 28.29-28.28a27.7 27.7 0 0 1 5.27.57v-30.9a48.38 48.38 0 0 0-6.74-.53Z" class="cls-1"/></svg>